<svg xmlns="http://www.w3.org/2000/svg" xmlns:xlink="http://www.w3.org/1999/xlink" viewBox="0 0 611.82 155.35"><defs><style>.cls-1{fill:url(#Canopus_Dourado);}.cls-2{fill:#f8f8ff;}</style><linearGradient id="Canopus_Dourado" x1="30.85" y1="20.18" x2="98.1" y2="136.67" gradientUnits="userSpaceOnUse"><stop offset="0" stop-color="#f0d09a"/><stop offset="0.25" stop-color="#dcb47d"/><stop offset="0.55" stop-color="#c89960"/><stop offset="0.81" stop-color="#bc884e"/><stop offset="1" stop-color="#b88248"/></linearGradient></defs><g id="Camada_2" data-name="Camada 2"><g id="Camada_1-2" data-name="Camada 1"><path class="cls-1" d="M123.09,112.83,92.84,92.67l-1.43-1-1.43,1L65.75,108.83l-23.1-15.4V62l23.1-15.4L87.07,60.77,69.05,75a4.46,4.46,0,1,0,.45.68l23.33-13,3.48-1.93-3.48-2.32L67.17,41.36l-1.42-1-1.42,1L38.67,58.46l-1.14.76v37l1.15.76,25.65,17.11,1.43,1,1.42-1L91.41,97.9,117,115,65.75,149.15,12.42,113.59V87.15a9.79,9.79,0,0,0,0-18.9V41.81L65.81,6.22l55.85,34.21L67.19,1,65.81,0l-1.5,1L8.4,38.27,7.25,39V68.25a9.78,9.78,0,0,0,0,18.9v29.21l1.15.77L64.32,154.4l1.43.95,1.43-.95,55.91-37.28L126.3,115ZM5.18,77.7a4.66,4.66,0,1,1,4.66,4.66A4.66,4.66,0,0,1,5.18,77.7Z"/><path class="cls-2" d="M176.57,120.77a14.45,14.45,0,0,1,14.78-14.49,15.24,15.24,0,0,1,7.25,1.8l-.6,3.08a12.46,12.46,0,0,0-6.73-2,11.62,11.62,0,0,0,0,23.23,12.5,12.5,0,0,0,7.08-2.24l.61,3.08a15.48,15.48,0,0,1-7.69,2A14.44,14.44,0,0,1,176.57,120.77Z"/><path class="cls-2" d="M227.43,125.1H216.77l-4.12,9.69H209.4l12.7-29,12.7,29h-3.25Zm-1.2-2.81-4.13-9.61L218,122.29Z"/><path class="cls-2" d="M261.82,116.25c0,5.48-4.44,9.45-10.57,9.45h-3v9.09h-3v-28h6C257.38,106.76,261.82,110.76,261.82,116.25Zm-3.2,0c0-3.85-3.08-6.61-7.37-6.61h-3v13.17h3C255.54,122.81,258.62,120.05,258.62,116.25Z"/><path class="cls-2" d="M272.27,107l3-.56v28.31h-3Z"/><path class="cls-2" d="M296.9,109.64v25.15h-3V109.64h-8.09l.56-2.88h18.11l.56,2.88Z"/><path class="cls-2" d="M333.46,125.1H322.8l-4.12,9.69h-3.25l12.7-29,12.7,29h-3.25Zm-1.21-2.81-4.12-9.61L324,122.29Z"/><path class="cls-2" d="M366.56,131.91l-.56,2.88H351.26V107l3.05-.56v25.43Z"/><path class="cls-2" d="M176.57,49.59c0-15.76,12.51-28.11,28.66-28.11A29.7,29.7,0,0,1,219.29,25l-1.16,6a24.17,24.17,0,0,0-13-3.88,22.29,22.29,0,0,0-22.3,22.52,22.25,22.25,0,0,0,22.3,22.53,24.24,24.24,0,0,0,13.74-4.35l1.17,6a29.94,29.94,0,0,1-14.91,4C189.08,77.71,176.57,65.36,176.57,49.59Z"/><path class="cls-2" d="M273.1,58H252.44l-8,18.8h-6.3l24.63-56.31,24.62,56.31H281.1Zm-2.33-5.43-8-18.64-8,18.64Z"/><path class="cls-2" d="M355.18,79.11,315,35.07V76.78H309V20.08l40.24,44.05V23l5.9-1.17Z"/><path class="cls-2" d="M379.86,49.59c0-15.76,12.58-28.11,28.58-28.11S437,33.83,437,49.59s-12.58,28.12-28.59,28.12S379.86,65.36,379.86,49.59Zm51,0a22.38,22.38,0,1,0-44.75,0,22.38,22.38,0,1,0,44.75,0Z"/><path class="cls-2" d="M493.86,40.82c0,10.64-8.62,18.34-20.51,18.34h-5.74V76.78H461.7V22.41h11.65C485.24,22.41,493.86,30.17,493.86,40.82Zm-6.21,0c0-7.46-6-12.82-14.3-12.82h-5.74V53.56h5.74C481.66,53.56,487.65,48.2,487.65,40.82Z"/><path class="cls-2" d="M516.45,56.2V23l5.9-1.08V55.58c0,10.1,5.52,16.54,14.06,16.54s14.06-6.44,14.06-16.54V23l5.9-1.08V56.2c0,12.89-8,21.51-20,21.51S516.45,69.09,516.45,56.2Z"/><path class="cls-2" d="M579,71.58l1.32-6.45c3.73,3.8,9.09,7,14.84,7,6.29,0,10.57-4.12,10.57-9.78,0-4.12-2.41-7.85-8.24-9.72L594,51.46c-10.25-3.34-13.28-9.32-13.28-15.69,0-8.08,6.44-14.29,15.3-14.29a25.66,25.66,0,0,1,13.75,4.34L608.55,32c-4.27-3.19-8.39-4.89-12.58-4.89-5.59,0-9.32,3.65-9.32,8.7,0,4.19,2.17,7.54,9.39,9.86l3.58,1.17c8.39,2.72,12.2,8.55,12.2,15.46,0,8.93-6.84,15.45-16.63,15.45A25.2,25.2,0,0,1,579,71.58Z"/></g></g></svg>